<svg width="124" height="266" viewBox="0 0 124 266" fill="none" xmlns="http://www.w3.org/2000/svg">
<path d="M98.7432 169.409H98.3402C96.325 179.888 88.533 184.993 82.0845 187.411L89.3391 169.274C93.9068 157.855 97.6685 148.048 99.1463 144.824C100.087 143.077 102.774 139.584 107.879 139.719V136.36C103.58 136.494 99.2806 136.629 94.9816 136.629C90.6826 136.629 85.3088 136.629 80.4724 136.36V139.719C88.2644 139.719 90.2795 141.465 90.2795 145.63C90.2795 149.795 88.13 154.362 86.2492 160.408C84.7714 164.707 83.2936 168.737 75.5016 189.023C75.5016 189.023 75.5016 189.023 75.5016 189.157C73.2178 195.069 70.5309 202.189 67.0379 211.19L49.8418 166.856C47.0206 159.467 41.5125 147.108 41.5125 143.077C41.5125 139.047 41.9155 140.525 44.7367 139.987C46.0802 139.719 47.961 139.719 50.5135 139.584V136.226C44.7367 136.226 38.8256 136.494 32.9144 136.494C27.0033 136.494 21.4951 136.494 15.8527 136.226V139.584C19.48 139.584 22.3012 140.122 24.3164 141.465C26.0628 142.809 27.9437 145.496 29.5558 149.929C30.0932 151.407 30.7649 153.287 33.1831 159.199C18.9426 153.556 5.23944 138.913 16.39 116.611L16.7931 116.208C28.481 121.851 39.766 126.15 59.5146 126.822L60.052 172.767L65.4258 188.889C65.6945 189.561 67.0379 189.561 67.3066 188.889L72.2774 172.767L71.74 126.822C90.6826 125.747 110.431 119.433 110.834 107.073C110.834 104.52 109.759 102.237 108.013 100.624C106.132 108.819 97.9372 114.999 89.3391 114.731C89.3391 114.731 89.3391 114.731 89.2048 114.731C89.2048 114.731 89.0704 114.731 88.9361 114.731H88.6674C75.5016 115.537 51.857 108.954 42.1842 98.3406H41.7811C24.0477 105.73 0 122.657 0 148.988C0 175.32 5.77681 175.589 22.3012 185.127H22.7042C24.4507 175.857 30.2275 169.409 35.7356 165.647C36.8104 168.334 38.1538 171.424 39.6316 175.186C44.1994 186.471 50.9166 203.398 61.1268 228.923H65.9632L81.2784 190.501C97.5341 196.009 118.626 218.848 105.998 244.104L105.595 244.507C92.6977 238.328 80.8754 234.163 57.4995 234.163C34.1235 234.163 9.67281 243.298 9.40412 257.27C9.40412 261.704 12.7627 265.6 17.1961 265.868C16.1213 260.494 18.2709 254.315 23.6446 251.896C35.87 244.507 75.0986 254.046 87.9957 265.868H88.3987C112.312 249.344 124 228.252 124 208.234C124 188.217 115.402 179.082 98.8776 169.543L98.7432 169.409Z" fill="#CFB383"/>
<path d="M75.6361 188.889C75.6361 188.889 75.6361 188.889 75.6361 189.023C75.3675 189.023 75.0988 189.023 74.8301 189.023C75.0988 189.023 75.3675 189.023 75.7705 189.023L75.6361 188.889Z" fill="#CFB383"/>
<path d="M61.5293 101.565L65.5596 0.000244141L69.59 101.565H61.5293Z" fill="#CFB383"/>
<path d="M80.0703 91.6236L105.461 62.6052L86.6532 96.3257L80.0703 91.6236Z" fill="#CFB383"/>
<path d="M72.2773 67.5754L92.2947 31.9741L79.6663 70.934L72.2773 67.5754Z" fill="#CFB383"/>
<path d="M47.9604 69.0529L35.332 30.2273L55.3494 65.8286L47.9604 69.0529Z" fill="#CFB383"/>
<path d="M44.4684 93.9068L25.6602 60.1863L51.0513 89.2047L44.4684 93.9068Z" fill="#CFB383"/>
</svg>
