<svg width="1984" height="215" viewBox="0 0 1984 215" fill="none" xmlns="http://www.w3.org/2000/svg">
<g filter="url(#filter0_d_942_2677)">
<rect width="1920" height="151" transform="translate(32 24)" fill="#1A2735"/>
<rect x="32" y="24" width="1920" height="151" fill="#1A2835"/>
<path d="M1389.42 96.0312L1383.88 114H1377.98L1386.34 91.25H1390.08L1389.42 96.0312ZM1394.02 114L1388.45 96.0312L1387.73 91.25H1391.52L1399.92 114H1394.02ZM1393.8 105.516V109.75H1382.12V105.516H1393.8ZM1401.39 90H1406.66V109.844L1406.11 114H1401.39V90ZM1417.03 105.359V105.688C1417.03 106.969 1416.9 108.135 1416.64 109.188C1416.38 110.24 1415.98 111.151 1415.44 111.922C1414.9 112.682 1414.21 113.271 1413.39 113.688C1412.57 114.104 1411.59 114.312 1410.47 114.312C1409.45 114.312 1408.57 114.094 1407.84 113.656C1407.11 113.208 1406.51 112.594 1406.02 111.812C1405.53 111.021 1405.13 110.109 1404.83 109.078C1404.53 108.036 1404.29 106.922 1404.11 105.734V105.344C1404.29 104.167 1404.53 103.062 1404.83 102.031C1405.13 100.99 1405.53 100.078 1406.02 99.2969C1406.51 98.5052 1407.11 97.8906 1407.83 97.4531C1408.56 97.0052 1409.43 96.7812 1410.44 96.7812C1411.57 96.7812 1412.55 96.9948 1413.38 97.4219C1414.21 97.849 1414.9 98.4479 1415.44 99.2188C1415.98 99.9896 1416.38 100.896 1416.64 101.938C1416.9 102.979 1417.03 104.12 1417.03 105.359ZM1411.77 105.688V105.359C1411.77 104.745 1411.73 104.167 1411.66 103.625C1411.58 103.083 1411.45 102.604 1411.27 102.188C1411.08 101.771 1410.81 101.443 1410.47 101.203C1410.12 100.964 1409.68 100.844 1409.12 100.844C1408.56 100.844 1408.09 100.938 1407.7 101.125C1407.33 101.312 1407.03 101.583 1406.8 101.938C1406.58 102.281 1406.42 102.708 1406.33 103.219C1406.23 103.719 1406.19 104.286 1406.2 104.922V106.156C1406.18 107.021 1406.26 107.76 1406.44 108.375C1406.61 108.99 1406.92 109.458 1407.36 109.781C1407.8 110.104 1408.4 110.266 1409.16 110.266C1409.72 110.266 1410.17 110.156 1410.52 109.938C1410.87 109.719 1411.14 109.406 1411.31 109C1411.49 108.594 1411.61 108.109 1411.67 107.547C1411.73 106.984 1411.77 106.365 1411.77 105.688ZM1418.72 105.719V105.391C1418.72 104.151 1418.9 103.01 1419.25 101.969C1419.6 100.917 1420.12 100.005 1420.81 99.2344C1421.5 98.4635 1422.35 97.8646 1423.36 97.4375C1424.37 97 1425.54 96.7812 1426.86 96.7812C1428.19 96.7812 1429.36 97 1430.38 97.4375C1431.4 97.8646 1432.25 98.4635 1432.94 99.2344C1433.62 100.005 1434.15 100.917 1434.5 101.969C1434.85 103.01 1435.03 104.151 1435.03 105.391V105.719C1435.03 106.948 1434.85 108.089 1434.5 109.141C1434.15 110.182 1433.62 111.094 1432.94 111.875C1432.25 112.646 1431.4 113.245 1430.39 113.672C1429.38 114.099 1428.21 114.312 1426.89 114.312C1425.57 114.312 1424.4 114.099 1423.38 113.672C1422.35 113.245 1421.5 112.646 1420.81 111.875C1420.12 111.094 1419.6 110.182 1419.25 109.141C1418.9 108.089 1418.72 106.948 1418.72 105.719ZM1423.98 105.391V105.719C1423.98 106.354 1424.03 106.948 1424.12 107.5C1424.22 108.052 1424.38 108.536 1424.59 108.953C1424.81 109.359 1425.11 109.677 1425.48 109.906C1425.86 110.135 1426.33 110.25 1426.89 110.25C1427.44 110.25 1427.9 110.135 1428.27 109.906C1428.64 109.677 1428.94 109.359 1429.16 108.953C1429.38 108.536 1429.53 108.052 1429.62 107.5C1429.72 106.948 1429.77 106.354 1429.77 105.719V105.391C1429.77 104.776 1429.72 104.198 1429.62 103.656C1429.53 103.104 1429.38 102.62 1429.16 102.203C1428.94 101.776 1428.64 101.443 1428.27 101.203C1427.89 100.964 1427.42 100.844 1426.86 100.844C1426.31 100.844 1425.84 100.964 1425.47 101.203C1425.1 101.443 1424.81 101.776 1424.59 102.203C1424.38 102.62 1424.22 103.104 1424.12 103.656C1424.03 104.198 1423.98 104.776 1423.98 105.391ZM1447.25 109.891V97.0938H1452.53V114H1447.59L1447.25 109.891ZM1447.75 106.453L1449.12 106.422C1449.12 107.557 1448.99 108.609 1448.72 109.578C1448.45 110.536 1448.05 111.37 1447.52 112.078C1446.99 112.786 1446.35 113.339 1445.58 113.734C1444.82 114.12 1443.94 114.312 1442.94 114.312C1442.1 114.312 1441.34 114.198 1440.64 113.969C1439.95 113.729 1439.36 113.359 1438.86 112.859C1438.36 112.349 1437.97 111.698 1437.69 110.906C1437.42 110.104 1437.28 109.146 1437.28 108.031V97.0938H1442.55V108.062C1442.55 108.438 1442.59 108.76 1442.69 109.031C1442.78 109.302 1442.92 109.531 1443.09 109.719C1443.27 109.896 1443.49 110.031 1443.75 110.125C1444.02 110.208 1444.33 110.25 1444.67 110.25C1445.46 110.25 1446.08 110.083 1446.53 109.75C1446.98 109.417 1447.29 108.964 1447.47 108.391C1447.66 107.818 1447.75 107.172 1447.75 106.453ZM1464.34 97.0938V100.75H1454.16V97.0938H1464.34ZM1456.3 92.8906H1461.56V108.484C1461.56 108.932 1461.61 109.281 1461.72 109.531C1461.82 109.771 1462 109.943 1462.25 110.047C1462.51 110.141 1462.85 110.188 1463.28 110.188C1463.58 110.188 1463.83 110.182 1464.03 110.172C1464.23 110.151 1464.42 110.125 1464.59 110.094V113.859C1464.15 114.005 1463.68 114.115 1463.19 114.188C1462.7 114.271 1462.18 114.312 1461.62 114.312C1460.5 114.312 1459.54 114.135 1458.73 113.781C1457.94 113.427 1457.34 112.87 1456.92 112.109C1456.51 111.349 1456.3 110.359 1456.3 109.141V92.8906Z" fill="#CFB383"/>
<path d="M1189.05 106.281H1183.39V102.047H1189.05C1189.82 102.047 1190.44 101.917 1190.92 101.656C1191.4 101.396 1191.75 101.036 1191.97 100.578C1192.2 100.109 1192.31 99.5833 1192.31 99C1192.31 98.375 1192.2 97.7969 1191.97 97.2656C1191.75 96.7344 1191.4 96.3073 1190.92 95.9844C1190.44 95.651 1189.82 95.4844 1189.05 95.4844H1185.45V114H1179.97V91.25H1189.05C1190.87 91.25 1192.44 91.5833 1193.75 92.25C1195.07 92.9167 1196.09 93.8333 1196.8 95C1197.51 96.1562 1197.86 97.4792 1197.86 98.9688C1197.86 100.438 1197.51 101.719 1196.8 102.812C1196.09 103.906 1195.07 104.76 1193.75 105.375C1192.44 105.979 1190.87 106.281 1189.05 106.281ZM1205.88 101.281V114H1200.61V97.0938H1205.53L1205.88 101.281ZM1210.88 96.9688L1210.78 101.859C1210.57 101.839 1210.29 101.812 1209.94 101.781C1209.58 101.75 1209.29 101.734 1209.05 101.734C1208.43 101.734 1207.9 101.807 1207.45 101.953C1207.02 102.089 1206.65 102.297 1206.36 102.578C1206.08 102.849 1205.87 103.193 1205.73 103.609C1205.61 104.026 1205.55 104.51 1205.56 105.062L1204.61 104.438C1204.61 103.302 1204.72 102.271 1204.94 101.344C1205.17 100.406 1205.49 99.599 1205.91 98.9219C1206.32 98.2344 1206.83 97.7083 1207.42 97.3438C1208.02 96.9688 1208.68 96.7812 1209.42 96.7812C1209.68 96.7812 1209.94 96.7969 1210.19 96.8281C1210.45 96.8594 1210.68 96.9062 1210.88 96.9688ZM1211.47 105.719V105.391C1211.47 104.151 1211.65 103.01 1212 101.969C1212.35 100.917 1212.88 100.005 1213.56 99.2344C1214.25 98.4635 1215.1 97.8646 1216.11 97.4375C1217.12 97 1218.29 96.7812 1219.61 96.7812C1220.94 96.7812 1222.11 97 1223.12 97.4375C1224.15 97.8646 1225 98.4635 1225.69 99.2344C1226.38 100.005 1226.9 100.917 1227.25 101.969C1227.6 103.01 1227.78 104.151 1227.78 105.391V105.719C1227.78 106.948 1227.6 108.089 1227.25 109.141C1226.9 110.182 1226.38 111.094 1225.69 111.875C1225 112.646 1224.15 113.245 1223.14 113.672C1222.13 114.099 1220.96 114.312 1219.64 114.312C1218.32 114.312 1217.15 114.099 1216.12 113.672C1215.1 113.245 1214.25 112.646 1213.56 111.875C1212.88 111.094 1212.35 110.182 1212 109.141C1211.65 108.089 1211.47 106.948 1211.47 105.719ZM1216.73 105.391V105.719C1216.73 106.354 1216.78 106.948 1216.88 107.5C1216.97 108.052 1217.12 108.536 1217.34 108.953C1217.56 109.359 1217.86 109.677 1218.23 109.906C1218.61 110.135 1219.08 110.25 1219.64 110.25C1220.19 110.25 1220.65 110.135 1221.02 109.906C1221.39 109.677 1221.69 109.359 1221.91 108.953C1222.12 108.536 1222.28 108.052 1222.38 107.5C1222.47 106.948 1222.52 106.354 1222.52 105.719V105.391C1222.52 104.776 1222.47 104.198 1222.38 103.656C1222.28 103.104 1222.12 102.62 1221.91 102.203C1221.69 101.776 1221.39 101.443 1221.02 101.203C1220.64 100.964 1220.17 100.844 1219.61 100.844C1219.06 100.844 1218.59 100.964 1218.22 101.203C1217.85 101.443 1217.56 101.776 1217.34 102.203C1217.12 102.62 1216.97 103.104 1216.88 103.656C1216.78 104.198 1216.73 104.776 1216.73 105.391ZM1239.84 110.125V90H1245.14V114H1240.39L1239.84 110.125ZM1229.47 105.75V105.422C1229.47 104.141 1229.61 102.974 1229.89 101.922C1230.17 100.859 1230.59 99.9479 1231.14 99.1875C1231.69 98.4167 1232.38 97.8229 1233.2 97.4062C1234.03 96.9896 1234.97 96.7812 1236.05 96.7812C1237.01 96.7812 1237.84 97.0052 1238.56 97.4531C1239.28 97.8906 1239.9 98.5052 1240.41 99.2969C1240.92 100.089 1241.33 101.016 1241.66 102.078C1241.98 103.13 1242.22 104.266 1242.39 105.484V105.875C1242.22 107.021 1241.98 108.104 1241.66 109.125C1241.33 110.135 1240.92 111.031 1240.41 111.812C1239.9 112.594 1239.28 113.208 1238.55 113.656C1237.83 114.094 1236.98 114.312 1236.02 114.312C1234.94 114.312 1233.99 114.099 1233.17 113.672C1232.36 113.245 1231.68 112.646 1231.12 111.875C1230.58 111.104 1230.17 110.198 1229.89 109.156C1229.61 108.115 1229.47 106.979 1229.47 105.75ZM1234.73 105.422V105.75C1234.73 106.385 1234.78 106.974 1234.86 107.516C1234.94 108.057 1235.08 108.536 1235.28 108.953C1235.49 109.359 1235.76 109.677 1236.09 109.906C1236.44 110.135 1236.86 110.25 1237.36 110.25C1238.04 110.25 1238.59 110.089 1239.03 109.766C1239.48 109.443 1239.81 108.984 1240.02 108.391C1240.23 107.797 1240.33 107.099 1240.3 106.297V105.062C1240.32 104.375 1240.27 103.771 1240.16 103.25C1240.04 102.719 1239.86 102.276 1239.61 101.922C1239.37 101.568 1239.06 101.302 1238.69 101.125C1238.32 100.938 1237.89 100.844 1237.39 100.844C1236.9 100.844 1236.48 100.958 1236.14 101.188C1235.81 101.417 1235.54 101.74 1235.33 102.156C1235.12 102.562 1234.97 103.047 1234.88 103.609C1234.78 104.161 1234.73 104.766 1234.73 105.422ZM1258 109.891V97.0938H1263.28V114H1258.34L1258 109.891ZM1258.5 106.453L1259.88 106.422C1259.88 107.557 1259.74 108.609 1259.47 109.578C1259.2 110.536 1258.8 111.37 1258.27 112.078C1257.74 112.786 1257.1 113.339 1256.33 113.734C1255.57 114.12 1254.69 114.312 1253.69 114.312C1252.85 114.312 1252.09 114.198 1251.39 113.969C1250.7 113.729 1250.11 113.359 1249.61 112.859C1249.11 112.349 1248.72 111.698 1248.44 110.906C1248.17 110.104 1248.03 109.146 1248.03 108.031V97.0938H1253.3V108.062C1253.3 108.438 1253.34 108.76 1253.44 109.031C1253.53 109.302 1253.67 109.531 1253.84 109.719C1254.02 109.896 1254.24 110.031 1254.5 110.125C1254.77 110.208 1255.08 110.25 1255.42 110.25C1256.21 110.25 1256.83 110.083 1257.28 109.75C1257.73 109.417 1258.04 108.964 1258.22 108.391C1258.41 107.818 1258.5 107.172 1258.5 106.453ZM1273.33 110.25C1273.82 110.25 1274.23 110.161 1274.58 109.984C1274.93 109.797 1275.2 109.536 1275.38 109.203C1275.56 108.859 1275.65 108.448 1275.64 107.969H1280.59C1280.6 109.24 1280.29 110.354 1279.66 111.312C1279.03 112.26 1278.18 113 1277.09 113.531C1276.02 114.052 1274.81 114.312 1273.45 114.312C1272.13 114.312 1270.97 114.099 1269.98 113.672C1268.99 113.234 1268.17 112.63 1267.5 111.859C1266.84 111.078 1266.35 110.167 1266.02 109.125C1265.69 108.083 1265.53 106.953 1265.53 105.734V105.375C1265.53 104.156 1265.69 103.026 1266.02 101.984C1266.35 100.932 1266.84 100.021 1267.5 99.25C1268.17 98.4688 1268.99 97.8646 1269.97 97.4375C1270.96 97 1272.11 96.7812 1273.42 96.7812C1274.83 96.7812 1276.07 97.0469 1277.14 97.5781C1278.22 98.1094 1279.07 98.8802 1279.69 99.8906C1280.3 100.901 1280.6 102.125 1280.59 103.562H1275.64C1275.65 103.052 1275.57 102.594 1275.41 102.188C1275.24 101.781 1274.98 101.458 1274.62 101.219C1274.28 100.969 1273.84 100.844 1273.3 100.844C1272.76 100.844 1272.32 100.964 1271.98 101.203C1271.65 101.443 1271.4 101.776 1271.22 102.203C1271.05 102.62 1270.94 103.099 1270.88 103.641C1270.82 104.182 1270.8 104.76 1270.8 105.375V105.734C1270.8 106.359 1270.82 106.948 1270.88 107.5C1270.94 108.042 1271.06 108.521 1271.23 108.938C1271.41 109.344 1271.67 109.667 1272 109.906C1272.33 110.135 1272.78 110.25 1273.33 110.25ZM1291.75 97.0938V100.75H1281.56V97.0938H1291.75ZM1283.7 92.8906H1288.97V108.484C1288.97 108.932 1289.02 109.281 1289.12 109.531C1289.23 109.771 1289.41 109.943 1289.66 110.047C1289.92 110.141 1290.26 110.188 1290.69 110.188C1290.99 110.188 1291.24 110.182 1291.44 110.172C1291.64 110.151 1291.82 110.125 1292 110.094V113.859C1291.55 114.005 1291.08 114.115 1290.59 114.188C1290.1 114.271 1289.58 114.312 1289.03 114.312C1287.91 114.312 1286.94 114.135 1286.14 113.781C1285.35 113.427 1284.74 112.87 1284.33 112.109C1283.91 111.349 1283.7 110.359 1283.7 109.141V92.8906ZM1302.7 109.25C1302.7 108.958 1302.6 108.708 1302.41 108.5C1302.22 108.281 1301.89 108.083 1301.41 107.906C1300.93 107.719 1300.26 107.531 1299.39 107.344C1298.57 107.167 1297.79 106.932 1297.06 106.641C1296.34 106.349 1295.71 105.995 1295.17 105.578C1294.63 105.161 1294.2 104.667 1293.89 104.094C1293.59 103.521 1293.44 102.865 1293.44 102.125C1293.44 101.406 1293.59 100.729 1293.89 100.094C1294.2 99.4479 1294.66 98.8802 1295.25 98.3906C1295.85 97.8906 1296.59 97.5 1297.45 97.2188C1298.32 96.9271 1299.3 96.7812 1300.41 96.7812C1301.93 96.7812 1303.24 97.0156 1304.34 97.4844C1305.45 97.9427 1306.3 98.5885 1306.89 99.4219C1307.49 100.245 1307.8 101.198 1307.8 102.281H1302.53C1302.53 101.854 1302.46 101.49 1302.31 101.188C1302.18 100.885 1301.95 100.656 1301.64 100.5C1301.33 100.333 1300.91 100.25 1300.39 100.25C1300.03 100.25 1299.69 100.318 1299.39 100.453C1299.1 100.589 1298.86 100.776 1298.69 101.016C1298.51 101.255 1298.42 101.536 1298.42 101.859C1298.42 102.089 1298.47 102.297 1298.58 102.484C1298.69 102.661 1298.86 102.828 1299.09 102.984C1299.32 103.13 1299.61 103.266 1299.97 103.391C1300.32 103.505 1300.75 103.609 1301.25 103.703C1302.39 103.911 1303.45 104.208 1304.44 104.594C1305.43 104.979 1306.23 105.526 1306.84 106.234C1307.47 106.943 1307.78 107.896 1307.78 109.094C1307.78 109.844 1307.61 110.536 1307.27 111.172C1306.92 111.797 1306.43 112.349 1305.78 112.828C1305.14 113.297 1304.36 113.661 1303.45 113.922C1302.55 114.182 1301.53 114.312 1300.39 114.312C1298.78 114.312 1297.41 114.026 1296.3 113.453C1295.18 112.87 1294.34 112.141 1293.77 111.266C1293.2 110.38 1292.92 109.484 1292.92 108.578H1297.83C1297.85 109.099 1297.97 109.526 1298.2 109.859C1298.44 110.193 1298.76 110.438 1299.16 110.594C1299.55 110.75 1300.01 110.828 1300.53 110.828C1301.01 110.828 1301.41 110.76 1301.72 110.625C1302.04 110.49 1302.29 110.307 1302.45 110.078C1302.62 109.839 1302.7 109.562 1302.7 109.25Z" fill="#CFB383"/>
<path d="M1856.46 117.959L1849.21 110.929C1851.38 108.184 1852.4 104.739 1852.05 101.295C1851.7 97.851 1850.01 94.6647 1847.33 92.3828C1844.64 90.1009 1841.16 88.8941 1837.6 89.0073C1834.03 89.1205 1830.64 90.5452 1828.12 92.9924C1825.59 95.4396 1824.12 98.726 1824.01 102.185C1823.89 105.644 1825.14 109.017 1827.49 111.618C1829.84 114.22 1833.13 115.857 1836.68 116.196C1840.23 116.535 1843.78 115.552 1846.62 113.445L1853.87 120.479C1854.04 120.644 1854.24 120.775 1854.46 120.865C1854.69 120.954 1854.92 121 1855.17 121C1855.41 121 1855.65 120.954 1855.87 120.865C1856.09 120.775 1856.29 120.644 1856.46 120.479C1856.63 120.314 1856.77 120.118 1856.86 119.902C1856.95 119.686 1857 119.455 1857 119.221C1857 118.988 1856.95 118.756 1856.86 118.541C1856.77 118.325 1856.63 118.129 1856.46 117.964L1856.46 117.959ZM1827.69 102.643C1827.69 100.653 1828.3 98.7075 1829.44 97.0529C1830.58 95.3982 1832.2 94.1086 1834.1 93.347C1836 92.5854 1838.08 92.3862 1840.09 92.7744C1842.11 93.1627 1843.96 94.121 1845.41 95.5281C1846.86 96.9353 1847.85 98.7282 1848.25 100.68C1848.65 102.632 1848.44 104.655 1847.66 106.493C1846.87 108.332 1845.54 109.903 1843.83 111.009C1842.13 112.115 1840.12 112.705 1838.07 112.705C1835.32 112.702 1832.68 111.641 1830.74 109.755C1828.79 107.868 1827.7 105.311 1827.69 102.643Z" fill="#CFB383"/>
<path d="M1781.61 122C1780.73 122 1779.97 121.687 1779.35 121.061C1778.72 120.435 1778.41 119.681 1778.41 118.8C1778.4 117.919 1778.72 117.166 1779.35 116.541C1779.98 115.916 1780.73 115.602 1781.61 115.6C1782.49 115.598 1783.24 115.911 1783.87 116.541C1784.5 117.17 1784.82 117.923 1784.81 118.8C1784.81 119.677 1784.5 120.43 1783.87 121.061C1783.25 121.691 1782.49 122.004 1781.61 122ZM1797.62 122C1796.74 122 1795.99 121.687 1795.36 121.061C1794.74 120.435 1794.42 119.681 1794.42 118.8C1794.42 117.919 1794.73 117.166 1795.36 116.541C1795.99 115.916 1796.74 115.602 1797.62 115.6C1798.5 115.598 1799.26 115.911 1799.89 116.541C1800.52 117.17 1800.83 117.923 1800.83 118.8C1800.82 119.677 1800.51 120.43 1799.89 121.061C1799.26 121.691 1798.51 122.004 1797.62 122ZM1780.25 96.4L1784.09 104.4H1795.3L1799.71 96.4H1780.25ZM1778.73 93.2H1802.35C1802.96 93.2 1803.43 93.4736 1803.75 94.0208C1804.07 94.568 1804.08 95.1211 1803.79 95.68L1798.1 105.92C1797.81 106.453 1797.42 106.867 1796.92 107.16C1796.43 107.453 1795.89 107.6 1795.3 107.6H1783.37L1781.61 110.8H1800.83V114H1781.61C1780.41 114 1779.5 113.474 1778.89 112.421C1778.27 111.368 1778.25 110.321 1778.81 109.28L1780.97 105.36L1775.2 93.2H1772V90H1777.2L1778.73 93.2Z" fill="#CFB383"/>
<path d="M1899.12 106.928C1901.67 108.107 1903.84 109.944 1905.4 112.241C1906.97 114.538 1907.86 117.209 1908 119.967C1908.01 120.22 1907.98 120.474 1907.9 120.713C1907.81 120.953 1907.68 121.174 1907.51 121.363C1907.34 121.552 1907.13 121.706 1906.9 121.815C1906.66 121.924 1906.41 121.986 1906.15 121.998C1905.89 122.01 1905.64 121.971 1905.39 121.884C1905.15 121.796 1904.93 121.663 1904.74 121.49C1904.55 121.317 1904.4 121.11 1904.29 120.879C1904.19 120.648 1904.13 120.398 1904.12 120.145C1903.98 117.215 1902.69 114.451 1900.53 112.426C1898.37 110.401 1895.49 109.271 1892.5 109.271C1889.51 109.271 1886.63 110.401 1884.47 112.426C1882.3 114.451 1881.02 117.215 1880.87 120.145C1880.84 120.641 1880.61 121.104 1880.23 121.434C1879.85 121.765 1879.36 121.937 1878.85 121.914C1878.34 121.891 1877.87 121.674 1877.52 121.31C1877.17 120.946 1876.99 120.464 1877 119.967C1877.13 117.209 1878.03 114.538 1879.59 112.241C1881.16 109.944 1883.33 108.107 1885.87 106.928C1884.24 105.594 1883.07 103.798 1882.51 101.787C1881.96 99.7755 1882.05 97.6454 1882.77 95.6864C1883.5 93.7274 1884.82 92.0346 1886.56 90.8382C1888.3 89.6418 1890.37 89 1892.5 89C1894.62 89 1896.69 89.6418 1898.43 90.8382C1900.17 92.0346 1901.5 93.7274 1902.22 95.6864C1902.94 97.6454 1903.03 99.7755 1902.48 101.787C1901.93 103.798 1900.75 105.594 1899.12 106.928ZM1898.96 99.1356C1898.96 97.4542 1898.28 95.8417 1897.07 94.6528C1895.86 93.4639 1894.21 92.796 1892.5 92.796C1890.78 92.796 1889.14 93.4639 1887.93 94.6528C1886.71 95.8417 1886.03 97.4542 1886.03 99.1356C1886.03 100.817 1886.71 102.429 1887.93 103.618C1889.14 104.807 1890.78 105.475 1892.5 105.475C1894.21 105.475 1895.86 104.807 1897.07 103.618C1898.28 102.429 1898.96 100.817 1898.96 99.1356Z" fill="#CFB383"/>
<path d="M1545.06 103.328H1539.2L1539.17 99.7344H1543.92C1544.78 99.7344 1545.46 99.6406 1545.97 99.4531C1546.48 99.2552 1546.85 98.9688 1547.08 98.5938C1547.32 98.2188 1547.44 97.75 1547.44 97.1875C1547.44 96.5417 1547.32 96.0208 1547.08 95.625C1546.84 95.2292 1546.46 94.9427 1545.94 94.7656C1545.43 94.5781 1544.77 94.4844 1543.95 94.4844H1541.27V113H1535.78V90.25H1543.95C1545.36 90.25 1546.61 90.3802 1547.72 90.6406C1548.82 90.8906 1549.76 91.276 1550.53 91.7969C1551.31 92.3177 1551.91 92.974 1552.31 93.7656C1552.72 94.5469 1552.92 95.4688 1552.92 96.5312C1552.92 97.4583 1552.72 98.3281 1552.33 99.1406C1551.93 99.9531 1551.27 100.615 1550.34 101.125C1549.43 101.625 1548.17 101.885 1546.58 101.906L1545.06 103.328ZM1544.84 113H1537.88L1539.75 108.781H1544.84C1545.59 108.781 1546.19 108.667 1546.64 108.438C1547.1 108.198 1547.43 107.885 1547.62 107.5C1547.83 107.104 1547.94 106.667 1547.94 106.188C1547.94 105.604 1547.84 105.099 1547.64 104.672C1547.45 104.245 1547.15 103.917 1546.73 103.688C1546.32 103.448 1545.76 103.328 1545.06 103.328H1540.45L1540.48 99.7344H1546L1547.28 101.172C1548.8 101.109 1550.01 101.323 1550.89 101.812C1551.79 102.302 1552.43 102.948 1552.81 103.75C1553.2 104.552 1553.39 105.391 1553.39 106.266C1553.39 107.755 1553.07 109 1552.42 110C1551.79 111 1550.83 111.75 1549.56 112.25C1548.29 112.75 1546.72 113 1544.84 113ZM1561.75 89V113H1556.47V89H1561.75ZM1564.34 104.719V104.391C1564.34 103.151 1564.52 102.01 1564.88 100.969C1565.23 99.9167 1565.75 99.0052 1566.44 98.2344C1567.12 97.4635 1567.97 96.8646 1568.98 96.4375C1569.99 96 1571.16 95.7812 1572.48 95.7812C1573.82 95.7812 1574.99 96 1576 96.4375C1577.02 96.8646 1577.88 97.4635 1578.56 98.2344C1579.25 99.0052 1579.77 99.9167 1580.12 100.969C1580.48 102.01 1580.66 103.151 1580.66 104.391V104.719C1580.66 105.948 1580.48 107.089 1580.12 108.141C1579.77 109.182 1579.25 110.094 1578.56 110.875C1577.88 111.646 1577.03 112.245 1576.02 112.672C1575.01 113.099 1573.84 113.312 1572.52 113.312C1571.19 113.312 1570.02 113.099 1569 112.672C1567.98 112.245 1567.12 111.646 1566.44 110.875C1565.75 110.094 1565.23 109.182 1564.88 108.141C1564.52 107.089 1564.34 105.948 1564.34 104.719ZM1569.61 104.391V104.719C1569.61 105.354 1569.66 105.948 1569.75 106.5C1569.84 107.052 1570 107.536 1570.22 107.953C1570.44 108.359 1570.73 108.677 1571.11 108.906C1571.48 109.135 1571.95 109.25 1572.52 109.25C1573.07 109.25 1573.53 109.135 1573.89 108.906C1574.27 108.677 1574.56 108.359 1574.78 107.953C1575 107.536 1575.16 107.052 1575.25 106.5C1575.34 105.948 1575.39 105.354 1575.39 104.719V104.391C1575.39 103.776 1575.34 103.198 1575.25 102.656C1575.16 102.104 1575 101.62 1574.78 101.203C1574.56 100.776 1574.27 100.443 1573.89 100.203C1573.52 99.9635 1573.05 99.8438 1572.48 99.8438C1571.93 99.8438 1571.47 99.9635 1571.09 100.203C1570.73 100.443 1570.44 100.776 1570.22 101.203C1570 101.62 1569.84 102.104 1569.75 102.656C1569.66 103.198 1569.61 103.776 1569.61 104.391ZM1593.62 96.0938H1598.41V112.344C1598.41 113.906 1598.05 115.229 1597.33 116.312C1596.61 117.406 1595.6 118.234 1594.31 118.797C1593.03 119.37 1591.53 119.656 1589.81 119.656C1589.05 119.656 1588.28 119.557 1587.48 119.359C1586.69 119.172 1585.95 118.891 1585.27 118.516C1584.58 118.141 1584 117.677 1583.53 117.125L1585.73 114.031C1586.16 114.51 1586.7 114.917 1587.34 115.25C1587.99 115.594 1588.75 115.766 1589.62 115.766C1590.39 115.766 1591.02 115.63 1591.53 115.359C1592.05 115.089 1592.45 114.693 1592.72 114.172C1592.99 113.661 1593.12 113.042 1593.12 112.312V100.094L1593.62 96.0938ZM1582.39 104.75V104.422C1582.39 103.141 1582.55 101.974 1582.86 100.922C1583.18 99.8594 1583.64 98.9479 1584.23 98.1875C1584.84 97.4167 1585.57 96.8229 1586.42 96.4062C1587.28 95.9896 1588.24 95.7812 1589.31 95.7812C1590.47 95.7812 1591.42 96.0052 1592.16 96.4531C1592.91 96.8906 1593.51 97.5052 1593.95 98.2969C1594.41 99.0885 1594.77 100.016 1595.02 101.078C1595.28 102.13 1595.49 103.266 1595.67 104.484V104.875C1595.49 106.021 1595.25 107.104 1594.94 108.125C1594.64 109.135 1594.24 110.031 1593.75 110.812C1593.26 111.594 1592.65 112.208 1591.91 112.656C1591.18 113.094 1590.3 113.312 1589.28 113.312C1588.22 113.312 1587.26 113.099 1586.41 112.672C1585.56 112.245 1584.84 111.646 1584.23 110.875C1583.64 110.104 1583.18 109.198 1582.86 108.156C1582.55 107.115 1582.39 105.979 1582.39 104.75ZM1587.66 104.422V104.75C1587.66 105.385 1587.71 105.974 1587.83 106.516C1587.95 107.057 1588.14 107.536 1588.39 107.953C1588.64 108.359 1588.95 108.677 1589.31 108.906C1589.69 109.135 1590.12 109.25 1590.62 109.25C1591.39 109.25 1592 109.089 1592.47 108.766C1592.94 108.443 1593.28 107.984 1593.48 107.391C1593.69 106.797 1593.78 106.099 1593.75 105.297V104.062C1593.77 103.375 1593.72 102.771 1593.61 102.25C1593.49 101.719 1593.31 101.276 1593.06 100.922C1592.82 100.568 1592.5 100.302 1592.09 100.125C1591.7 99.9375 1591.22 99.8438 1590.66 99.8438C1590.17 99.8438 1589.73 99.9583 1589.36 100.188C1588.98 100.417 1588.67 100.74 1588.42 101.156C1588.17 101.562 1587.98 102.047 1587.84 102.609C1587.72 103.161 1587.66 103.766 1587.66 104.422Z" fill="#CFB383"/>
<path d="M176.264 78.5049L178.021 35L179.899 78.5049H176.264Z" fill="#CFB482"/>
<path d="M185.473 71.2008L195.166 59.2607L188.502 73.2966L185.473 71.2008Z" fill="#CFB482"/>
<path d="M180.262 65.1041L187.956 50.4966L183.594 66.5648L180.262 65.1041Z" fill="#CFB482"/>
<path d="M171.235 65.93L166.873 49.9888L174.567 64.4692L171.235 65.93Z" fill="#CFB482"/>
<path d="M168.266 73.4875L161.541 59.5786L171.295 71.3281L168.266 73.4875Z" fill="#CFB482"/>
<path d="M191.168 75.5199C190.441 77.9333 188.926 80.0927 186.805 80.9183C183.655 83.2682 170.326 80.3467 165.6 74.8848H165.419C158.451 77.9333 149 84.9195 149 95.7163C149 106.513 151.302 106.704 157.785 110.641H157.906C158.997 104.608 164.086 101.432 166.328 101.051C159.966 100.67 149.909 94.065 155.483 82.4426L155.604 82.252C160.33 84.6654 164.873 86.4437 173.053 86.6343L164.631 108.863L164.086 116.865C164.086 117.246 164.631 117.437 164.873 117.183L169.72 111.022L179.051 86.4437C185.897 85.6816 192.44 83.1412 192.561 78.5049C192.561 77.2982 192.016 76.155 191.107 75.5199H191.168Z" fill="#CFB482"/>
<path d="M184.624 92.9854H184.442C183.291 99.2729 177.172 100.924 175.173 101.051C181.534 101.305 192.924 111.848 187.29 123.661L187.108 123.852C182.08 121.311 177.415 119.596 168.205 119.596C158.996 119.596 149.424 123.407 149.303 129.123C149.303 130.965 150.636 132.553 152.332 132.68C152.635 132.68 152.938 132.68 153.18 132.68C152.696 131.092 153.059 129.377 154.028 127.916C154.15 127.789 154.271 127.662 154.392 127.535C154.453 127.472 154.513 127.345 154.634 127.281C159.057 123.852 175.052 127.853 180.262 132.807H180.444C189.835 126.011 194.439 117.31 194.439 109.054C194.439 100.797 191.046 97.05 184.564 93.1124L184.624 92.9854Z" fill="#CFB482"/>
<path d="M225.036 115.849C224.612 116.04 224.188 116.103 223.703 116.103C221.522 116.103 220.916 113.055 220.916 110.26V99.2731C220.916 96.0975 221.522 94.8908 222.37 94.8908V94.6368L210.253 90.0005H210.071L196.864 94.6368V94.8273C198.621 98.5745 200.438 100.988 202.862 102.449C202.862 102.258 202.862 102.131 202.862 101.941C202.862 101.305 203.165 100.607 203.589 100.162C204.558 99.019 204.679 98.765 205.043 98.638C204.558 97.2407 203.892 96.4151 204.013 94.0652H204.073L213.949 97.8123V104.036C212.979 104.036 212.071 104.036 211.283 103.909C210.314 104.1 209.284 104.227 208.254 104.29C208.375 104.29 208.435 104.29 208.557 104.29C199.166 105.18 196.318 108.482 196.318 113.245C196.318 118.009 200.923 120.422 205.588 121.248H205.77L213.888 112.483V113.182C213.888 117.882 216.554 119.66 219.583 121.248H219.765L225.157 115.976L225.036 115.786V115.849ZM213.888 111.531C211.828 113.817 210.495 115.341 207.648 115.341C204.8 115.341 201.529 114.198 201.529 110.642C201.529 107.085 205.346 104.671 213.888 104.608V111.531Z" fill="#CFB482"/>
<path d="M227.58 127.281V127.154L233.82 123.089H233.941C235.638 125.63 239.576 130.711 243.029 130.711C246.482 130.711 248.663 129.313 248.663 125.757C248.663 122.2 245.755 118.961 244.422 114.579L233.335 121.692H233.153C228.731 118.961 225.277 114.452 225.277 109.816C225.277 101.369 232.305 94.7636 238.97 90.4448H239.394L251.45 94.0649V94.319C249.754 96.0973 248.482 98.3202 248.482 100.924C248.482 105.941 253.45 110.387 253.45 116.929C253.45 128.361 246.785 132.171 238.97 132.171C231.154 132.171 229.64 129.758 227.701 127.281H227.58ZM239.757 116.484H239.878L244.119 113.817C243.877 112.737 243.635 111.53 243.635 110.26C243.635 105.814 245.574 102.258 247.512 99.3363V99.2093C247.452 99.2093 234.123 95.2081 234.123 95.2081H233.941C231.518 97.558 230.003 99.5904 230.003 104.481C230.003 109.371 234.486 115.405 239.757 116.484Z" fill="#CFB482"/>
<path d="M277.744 77.3619C280.895 77.4254 284.106 77.4889 287.256 77.4889C290.407 77.4889 293.799 77.3619 297.071 77.3619V79.3307C295.678 79.3942 294.648 79.3942 293.921 79.5847C292.345 79.9023 292.103 80.7279 292.103 81.4265C292.103 83.7764 295.132 90.9532 296.707 95.2084L306.28 120.994C314.944 97.4948 315.974 94.6368 317.004 91.3977C318.094 87.8411 319.245 85.3007 319.245 82.8238C319.245 80.3469 318.094 79.3307 313.793 79.3307V77.3619C316.458 77.4254 319.185 77.4889 321.851 77.4889C324.516 77.4889 326.576 77.4254 329 77.3619V79.3307C326.213 79.2672 324.698 81.236 324.153 82.2522C323.305 84.1575 321.184 89.8735 318.7 96.5421L305.553 131.156H302.887C297.192 116.358 293.436 106.45 290.952 99.9082C286.59 88.6033 285.923 86.6979 285.378 85.2372C284.53 82.6968 283.5 81.109 282.47 80.3469C281.379 79.5847 279.804 79.2672 277.805 79.2672V77.2983L277.744 77.3619Z" fill="#CFB482"/>
<path d="M283.864 115.468C283.44 115.659 283.016 115.722 282.531 115.722C280.35 115.722 279.744 112.674 279.744 109.879V98.892C279.744 95.7164 280.35 94.5097 281.198 94.5097V94.2557L269.081 89.6194H268.899L255.692 94.2557V94.4462C257.449 98.1933 259.266 100.607 261.69 102.068C261.69 101.877 261.69 101.75 261.69 101.559C261.69 100.924 261.993 100.226 262.417 99.7811C263.386 98.6379 263.507 98.3839 263.871 98.2569C263.386 96.8596 262.72 96.034 262.841 93.6841H262.901L272.777 97.4312V103.655C271.808 103.655 270.899 103.655 270.111 103.528C269.142 103.719 268.112 103.846 267.082 103.909C267.203 103.909 267.264 103.909 267.385 103.909C257.994 104.798 255.146 108.101 255.146 112.864C255.146 117.628 259.751 120.041 264.416 120.867H264.598L272.716 112.102V112.801C272.716 117.501 275.382 119.279 278.411 120.867H278.593L283.985 115.595L283.864 115.405V115.468ZM272.716 111.15C270.656 113.436 269.324 114.96 266.476 114.96C263.628 114.96 260.357 113.817 260.357 110.26C260.357 106.704 264.174 104.29 272.716 104.227V111.15Z" fill="#CFB482"/>
<path d="M306.523 103.655L305.553 100.797L303.372 102.702L304.584 99.9714L301.736 99.6539L304.402 98.6377L302.585 96.2878L305.19 97.6215L305.432 94.573L306.401 97.431L308.583 95.5257L307.371 98.2566L310.218 98.5742L307.553 99.5904L309.37 101.94L306.765 100.67L306.523 103.655Z" fill="#CFB482"/>
</g>
<defs>
<filter id="filter0_d_942_2677" x="0.4" y="0.4" width="1983.2" height="214.2" filterUnits="userSpaceOnUse" color-interpolation-filters="sRGB">
<feFlood flood-opacity="0" result="BackgroundImageFix"/>
<feColorMatrix in="SourceAlpha" type="matrix" values="0 0 0 0 0 0 0 0 0 0 0 0 0 0 0 0 0 0 127 0" result="hardAlpha"/>
<feOffset dy="8"/>
<feGaussianBlur stdDeviation="15.8"/>
<feComposite in2="hardAlpha" operator="out"/>
<feColorMatrix type="matrix" values="0 0 0 0 0 0 0 0 0 0 0 0 0 0 0 0 0 0 0.06 0"/>
<feBlend mode="normal" in2="BackgroundImageFix" result="effect1_dropShadow_942_2677"/>
<feBlend mode="normal" in="SourceGraphic" in2="effect1_dropShadow_942_2677" result="shape"/>
</filter>
</defs>
</svg>
