<svg width="166" height="166" viewBox="0 0 166 166" fill="none" xmlns="http://www.w3.org/2000/svg">
<circle cx="83" cy="83" r="83" fill="#1A2835"/>
<ellipse cx="80.8191" cy="68.6752" rx="14.6807" ry="20.588" transform="rotate(43.2094 80.8191 68.6752)" fill="#CFB383"/>
<path d="M43.7549 90.0798C43.7549 100.318 47.8221 110.138 55.0619 117.377C62.3017 124.617 72.121 128.684 82.3595 128.684C82.3595 107.237 65.0732 90.0798 43.7549 90.0798ZM82.3595 57.9092C85.2036 57.9092 87.9312 59.039 89.9422 61.0501C91.9533 63.0611 93.0831 65.7887 93.0831 68.6328C93.0831 71.4768 91.9533 74.2044 89.9422 76.2154C87.9312 78.2265 85.2036 79.3563 82.3595 79.3563C79.5155 79.3563 76.7879 78.2265 74.7769 76.2154C72.7658 74.2044 71.636 71.4768 71.636 68.6328C71.636 65.7887 72.7658 63.0611 74.7769 61.0501C76.7879 59.039 79.5155 57.9092 82.3595 57.9092ZM54.9073 78.2839C54.9073 81.128 56.0371 83.8555 58.0482 85.8666C60.0592 87.8776 62.7868 89.0074 65.6309 89.0074C67.9042 89.0074 70.0061 88.2782 71.636 87.1201V87.9351C71.636 90.7791 72.7658 93.5067 74.7769 95.5177C76.7879 97.5288 79.5155 98.6586 82.3595 98.6586C85.2036 98.6586 87.9312 97.5288 89.9422 95.5177C91.9533 93.5067 93.0831 90.7791 93.0831 87.9351V87.1201C94.713 88.2782 96.8148 89.0074 99.0882 89.0074C101.932 89.0074 104.66 87.8776 106.671 85.8666C108.682 83.8555 109.812 81.128 109.812 78.2839C109.812 73.9945 107.281 70.3485 103.678 68.6328C107.281 66.917 109.812 63.2281 109.812 58.9816C109.812 56.1375 108.682 53.41 106.671 51.3989C104.66 49.3879 101.932 48.2581 99.0882 48.2581C96.8148 48.2581 94.713 48.9444 93.0831 50.1454V49.3304C93.0831 46.4864 91.9533 43.7588 89.9422 41.7478C87.9312 39.7367 85.2036 38.6069 82.3595 38.6069C79.5155 38.6069 76.7879 39.7367 74.7769 41.7478C72.7658 43.7588 71.636 46.4864 71.636 49.3304V50.1454C70.0061 48.9444 67.9042 48.2581 65.6309 48.2581C62.7868 48.2581 60.0592 49.3879 58.0482 51.3989C56.0371 53.41 54.9073 56.1375 54.9073 58.9816C54.9073 63.2281 57.4381 66.917 61.0412 68.6328C57.4381 70.3485 54.9073 73.9945 54.9073 78.2839ZM82.3595 128.684C92.5981 128.684 102.417 124.617 109.657 117.377C116.897 110.138 120.964 100.318 120.964 90.0798C99.5172 90.0798 82.3595 107.237 82.3595 128.684Z" fill="#9C704D"/>
</svg>
