<svg width="166" height="166" viewBox="0 0 166 166" fill="none" xmlns="http://www.w3.org/2000/svg">
<circle cx="83" cy="83" r="83" fill="#1A2835"/>
<path d="M113.414 102.487C112.998 102.37 103.127 99.5826 95.4044 99.5826C92.7829 99.5826 90.7193 99.8943 89.1023 100.538C86.6795 101.502 84.8164 102.817 83.3762 104.282C83.6679 101.422 83.8903 98.5562 83.9942 95.6886C84.3661 94.4125 84.5557 92.832 84.0599 91.1585C84.0661 89.0503 84.0193 86.9422 83.9195 84.8363C85.3815 85.2757 88.7085 86.1325 92.5404 86.1325C96.8208 86.1325 100.43 85.0825 103.272 83.0097C108.86 78.9353 108.548 68.1231 108.493 66.9017L108.413 65.1115L106.454 65.2008C104.689 65.2829 89.0348 66.1087 83.7208 69.9826C83.2669 70.3144 82.864 70.6571 82.483 71.0089C82.353 70.1724 82.2169 69.3368 82.0746 68.5023C82.7254 67.5799 83.3106 66.3913 83.4036 64.9529C83.5385 62.9239 82.6325 60.9715 80.7985 59.1412C81.8158 59.4639 84.4773 60.1985 87.5801 60.1985C90.8979 60.1985 93.7017 59.3727 95.9166 57.7411C100.279 54.5254 100.035 46.156 99.991 45.2117L99.9126 43.4197L97.9547 43.509C96.6148 43.571 84.7508 44.1981 80.6509 47.2133C79.2836 48.2215 78.3666 49.3663 77.8325 50.6132C77.4108 49.2902 76.9702 47.9732 76.5108 46.6628C76.9702 46.5279 79.599 45.6565 80.8605 43.3285C81.4183 42.3004 81.8923 40.5959 80.9899 38.3116C79.5917 34.7732 72.4455 30.2011 71.0273 29.3206L69.4084 28.3125L68.3219 29.8055C67.868 30.4308 63.9303 36.0256 65.4726 39.9341C67.5654 45.2317 74.6149 46.5789 75.459 46.7229C76.4106 50.1228 77.2637 53.541 77.9419 56.9846L77.9583 57.0812C72.5695 54.1826 63.0407 52.1628 61.7938 51.9075L59.7611 51.4901L59.4494 53.3732C59.2908 54.3376 58.0183 62.913 62.4172 66.9363C66.2437 70.4401 71.5814 71.1748 75.386 71.1748C77.621 71.1748 79.1906 70.9141 79.2563 70.905L79.7284 70.8248L79.8724 70.7209C79.98 71.8694 80.0639 73.016 80.1459 74.1627C79.805 74.932 79.5826 75.7305 79.5042 76.5636C79.3401 78.3355 79.8287 79.9288 80.4449 81.2031C80.4576 82.0271 80.5087 82.8511 80.505 83.6751C80.5032 84.6103 80.4594 85.5437 80.4248 86.4789C79.5834 85.9076 78.6891 85.4186 77.7541 85.0186C75.1727 83.9066 70.9361 83.3652 64.8035 83.3652C58.4705 83.3652 52.5366 83.9595 52.2868 83.985L50.1831 84.1983L50.5951 86.0979C50.6954 86.5682 53.171 97.663 60.2752 100.722C62.7217 101.779 65.4726 102.313 68.4514 102.313C72.8284 102.313 76.8153 101.167 79.3182 100.244C77.6812 112.387 74.3196 124.286 69.1769 135.476L75.4662 137.692C77.9293 131.271 79.8722 124.662 81.2761 117.929C83.4072 119.614 87.3577 122.044 92.4529 122.044C94.549 122.034 96.6243 121.628 98.5691 120.846C105.666 118.024 114.132 105.646 114.487 105.121L115.811 103.17L113.414 102.487Z" fill="#9C704D"/>
</svg>
