<svg width="58" height="100" viewBox="0 0 58 100" fill="none" xmlns="http://www.w3.org/2000/svg">
<path d="M5.90875 4.72426C6.4525 1.98529 8.82688 0 11.6 0H46.4C49.1731 0 51.5475 1.98529 52.0913 4.72426L57.42 31.8015C57.8006 33.7316 58 35.6985 58 37.6838V38.2353C58 52.4632 48.0312 64.3382 34.8 67.0588V88.2353H46.4C49.6081 88.2353 52.2 90.864 52.2 94.1176C52.2 97.3713 49.6081 100 46.4 100H11.6C8.39188 100 5.8 97.3713 5.8 94.1176C5.8 90.864 8.39188 88.2353 11.6 88.2353H23.2V67.0588C9.96875 64.3382 0 52.4632 0 38.2353V37.6838C0 35.7169 0.199374 33.75 0.579999 31.8015L5.90875 4.72426ZM14.0287 23.5294H43.9531L41.6331 11.7647H16.3487L14.0287 23.5294Z" fill="#1A2835"/>
</svg>
