<svg width="98" height="76" viewBox="0 0 98 76" fill="none" xmlns="http://www.w3.org/2000/svg">
<path d="M45.7503 9.02299L25.9122 31.0038C25.1295 31.8688 25.1635 33.2087 25.9972 34.0397C31.1865 39.2127 39.6083 39.2127 44.7976 34.0397L50.208 28.6463C50.9226 27.9339 51.8243 27.5439 52.7431 27.476C53.9 27.3742 55.091 27.7643 55.9757 28.6463L86.0222 58.3441L98 48.8462V0L78.9445 10.8547L74.8951 8.158C72.2069 6.37715 69.0594 5.42736 65.8267 5.42736H53.849C53.6618 5.42736 53.4576 5.42736 53.2705 5.44432C50.3951 5.59697 47.6899 6.88596 45.7503 9.02299ZM19.8382 25.5595L38.009 5.42736H31.2715C26.933 5.42736 22.7816 7.14037 19.7191 10.1933L19.0556 10.8547L0 0V48.8462L26.6097 70.9458C30.5229 74.2022 35.4569 75.983 40.5441 75.983H43.2153L42.0243 74.7958C40.425 73.2015 40.425 70.6235 42.0243 69.0462C43.6236 67.4689 46.2097 67.4519 47.792 69.0462L54.7677 76H56.299C59.5486 76 62.7302 75.2707 65.6226 73.9139L61.0799 69.3684C59.4806 67.7742 59.4806 65.1962 61.0799 63.6188C62.6792 62.0415 65.2653 62.0246 66.8476 63.6188L72.292 69.0462L75.2694 66.0781C76.7837 64.5686 77.226 62.3807 76.5625 60.4642L53.1003 37.2622L50.5653 39.7893C42.1774 48.1509 28.6003 48.1509 20.2125 39.7893C16.2993 35.8884 16.1462 29.63 19.8382 25.5425V25.5595Z" fill="#1A2835"/>
</svg>
