<svg width="95" height="89" viewBox="0 0 95 89" fill="none" xmlns="http://www.w3.org/2000/svg">
<path d="M87.4482 1.24254C88.6357 0.111498 90.3613 -0.296418 91.957 0.222747C93.7754 0.834621 95 2.54045 95 4.45024V39.1045C95 63.4311 74.9424 83.0667 50.6914 83.0667C36.4043 83.0667 24.084 73.8886 19.6123 61.0578C13.0439 66.7686 8.90625 75.168 8.90625 84.55C8.90625 87.016 6.9209 89 4.45312 89C1.98535 89 0 87.016 0 84.55C0 70.6623 7.08789 58.4249 17.8311 51.2307C24.3809 46.8549 32.1924 44.5001 40.0781 44.5001H54.9219C57.3896 44.5001 59.375 42.5162 59.375 40.0501C59.375 37.5841 57.3896 35.6002 54.9219 35.6002H40.0781C32.7119 35.6002 25.7354 37.2318 19.4824 40.1428C23.8057 27.1637 36.0332 17.8002 50.4688 17.8002C62.7891 17.8002 71.9551 13.7025 78.0596 9.64189C81.6221 7.26856 84.6465 4.43169 87.4668 1.24254H87.4482Z" fill="#1A2835"/>
</svg>
