<svg width="93" height="74" viewBox="0 0 93 74" fill="none" xmlns="http://www.w3.org/2000/svg">
<path d="M50.7739 12.1963C52.3467 10.9458 53.3382 9.01019 53.3382 6.85185C53.3382 3.0662 50.2781 0 46.5 0C42.7219 0 39.6618 3.0662 39.6618 6.85185C39.6618 9.01019 40.6704 10.9458 42.2261 12.1963L30.5327 30.6278C28.8232 33.3171 25.1818 33.9852 22.6346 32.0667L12.4627 24.444C13.232 23.3477 13.6765 21.9944 13.6765 20.5556C13.6765 16.7699 10.6164 13.7037 6.83824 13.7037C3.06011 13.7037 0 16.7699 0 20.5556C0 24.2898 2.99173 27.3389 6.70147 27.4074L12.2746 64.6644C13.0781 70.0259 17.6768 74 23.0961 74H69.9039C75.3232 74 79.9219 70.0259 80.7254 64.6644L86.2985 27.4074C90.0083 27.3389 93 24.2898 93 20.5556C93 16.7699 89.9399 13.7037 86.1618 13.7037C82.3836 13.7037 79.3235 16.7699 79.3235 20.5556C79.3235 21.9944 79.768 23.3477 80.5373 24.444L70.3825 32.0838C67.8353 34.0023 64.1939 33.3343 62.4844 30.6449L50.7739 12.1963Z" fill="#1A2835"/>
</svg>
