<svg width="166" height="166" viewBox="0 0 166 166" fill="none" xmlns="http://www.w3.org/2000/svg">
<circle cx="83" cy="83" r="83" fill="#1A2835"/>
<ellipse cx="96.879" cy="71.1795" rx="21.4373" ry="9.89084" transform="rotate(-43.1834 96.879 71.1795)" fill="#CFB383"/>
<path d="M103.293 56.1474L112.515 65.1077L88.7945 83.8817L84.505 79.6149L103.25 56.1474H103.293ZM103.293 47.6137C102.025 47.6054 100.772 47.8766 99.6221 48.4078C98.4725 48.939 97.4555 49.717 96.6443 50.6858L72.9234 80.2549L88.1082 95.3594L117.877 71.8066C121.738 68.5638 122.038 62.7183 118.435 59.1341L109.384 50.1311C107.668 48.4244 105.481 47.6137 103.293 47.6137ZM69.9208 83.2843L66.8752 86.3138C66.071 87.1277 65.6203 88.2233 65.6203 89.3646C65.6203 90.5058 66.071 91.6014 66.8752 92.4153L75.9261 101.376C76.8268 102.229 77.8992 102.613 79.0145 102.613C80.1298 102.613 81.2021 102.229 82.06 101.376L85.0627 98.3889L69.9208 83.2843ZM56.6234 103.082C54.2641 103.082 52.3339 105.002 52.3339 107.349C52.3339 109.696 54.2641 111.616 56.6234 111.616C58.9826 111.616 60.9128 109.696 60.9128 107.349C60.9128 105.002 58.9826 103.082 56.6234 103.082ZM69.4918 107.349C67.1326 107.349 65.2023 109.269 65.2023 111.616C65.2023 113.963 67.1326 115.883 69.4918 115.883C71.851 115.883 73.7813 113.963 73.7813 111.616C73.7813 109.269 71.851 107.349 69.4918 107.349ZM48.0444 115.883C45.6852 115.883 43.7549 117.803 43.7549 120.15C43.7549 122.496 45.6852 124.416 48.0444 124.416C50.4036 124.416 52.3339 122.496 52.3339 120.15C52.3339 117.803 50.4036 115.883 48.0444 115.883ZM60.9128 120.15C58.5536 120.15 56.6234 122.07 56.6234 124.416C56.6234 126.763 58.5536 128.683 60.9128 128.683C63.2721 128.683 65.2023 126.763 65.2023 124.416C65.2023 122.07 63.2721 120.15 60.9128 120.15Z" fill="#9C704D"/>
</svg>
