<svg width="166" height="166" viewBox="0 0 166 166" fill="none" xmlns="http://www.w3.org/2000/svg">
<circle cx="83" cy="83" r="83" fill="#1A2835"/>
<ellipse cx="71.2975" cy="72.0674" rx="21.4373" ry="9.89084" transform="rotate(-43.1834 71.2975 72.0674)" fill="#CFB383"/>
<path d="M118.393 57.9081C118.393 52.23 113.776 47.6135 108.098 47.6135C107.036 47.6135 106.007 47.7744 105.042 48.08C101.423 49.206 97.3048 50.4767 93.6212 49.5277C81.5251 46.4554 68.4639 51.2971 59.247 60.5139C50.0302 69.7308 45.1724 82.8081 48.2447 94.9042C49.1777 98.5877 47.923 102.689 46.797 106.325C46.4914 107.29 46.3306 108.319 46.3306 109.381C46.3306 115.059 50.947 119.676 56.6251 119.676C57.6868 119.676 58.7162 119.515 59.6974 119.209C63.3166 118.083 67.4344 116.812 71.118 117.761C83.2141 120.834 96.2753 115.992 105.492 106.775C114.709 97.5583 119.551 84.4809 116.478 72.3848C115.545 68.7013 116.8 64.5996 117.926 60.9643C118.232 59.9992 118.393 58.9697 118.393 57.892V57.9081ZM82.1525 65.4682C73.7881 67.9131 66.6302 75.0711 64.1852 83.4354C63.5901 85.4782 61.4346 86.6525 59.3918 86.0573C57.349 85.4622 56.1747 83.3228 56.786 81.28C59.9709 70.3903 69.1073 61.2538 79.997 58.0689C82.0399 57.4738 84.1953 58.648 84.7904 60.6908C85.3856 62.7337 84.2114 64.8891 82.1685 65.4843L82.1525 65.4682Z" fill="#9C704D"/>
</svg>
