<svg width="93" height="93" viewBox="0 0 93 93" fill="none" xmlns="http://www.w3.org/2000/svg">
<path d="M84.2777 1.11188C86.0032 -0.432005 88.6369 -0.359351 90.2716 1.27535L91.7247 2.72841C93.3594 4.36311 93.432 6.99678 91.8881 8.7223L76.304 26.1409C75.8318 26.6676 75.5593 27.3578 75.5593 28.0844V31.9713C75.5593 33.5697 74.2516 34.8774 72.6532 34.8774H69.7834C68.9479 34.8774 68.1669 35.2225 67.622 35.8401L18.2904 90.9839C17.1462 92.2735 15.5115 93 13.7859 93C12.1876 93 10.6437 92.3643 9.51757 91.22L1.76184 83.5006C0.635715 82.3745 0 80.8306 0 79.2322C0 77.5067 0.726532 75.872 2.01613 74.7277L22.2864 56.6007C22.9039 56.0559 23.249 55.2567 23.249 54.4393V49.4262C23.249 47.8279 24.5568 46.5201 26.1551 46.5201H32.4397C33.148 46.5201 33.8382 46.2477 34.3831 45.7754L84.2777 1.11188ZM78.4654 52.3142C79.1193 52.3142 79.6824 52.7501 79.864 53.3677L82.5522 62.7581L91.9426 65.4463C92.5602 65.6279 92.9961 66.191 92.9961 66.8448C92.9961 67.4987 92.5602 68.0618 91.9426 68.2434L82.5522 70.9316L79.864 80.322C79.6824 80.9396 79.1193 81.3755 78.4654 81.3755C77.8116 81.3755 77.2485 80.9396 77.0669 80.322L74.3787 70.9316L64.9883 68.2434C64.3707 68.0618 63.9348 67.4987 63.9348 66.8448C63.9348 66.191 64.3707 65.6279 64.9883 65.4463L74.3787 62.7581L77.0669 53.3677C77.2485 52.7501 77.8116 52.3142 78.4654 52.3142ZM15.9292 12.6819L18.6174 22.0723L28.0078 24.7605C28.6254 24.9421 29.0613 25.5052 29.0613 26.1591C29.0613 26.8129 28.6254 27.376 28.0078 27.5576L18.6174 30.2458L15.9292 39.6362C15.7476 40.2538 15.1845 40.6897 14.5306 40.6897C13.8768 40.6897 13.3137 40.2538 13.1321 39.6362L10.4439 30.2458L1.05347 27.5576C0.43592 27.376 0 26.8129 0 26.1591C0 25.5052 0.43592 24.9421 1.05347 24.7605L10.4439 22.0723L13.1321 12.6819C13.3137 12.0643 13.8768 11.6284 14.5306 11.6284C15.1845 11.6284 15.7476 12.0643 15.9292 12.6819ZM37.7797 0.00391464C38.4517 0.00391464 39.0329 0.457997 39.1964 1.11188L40.4315 6.07046L45.3901 7.30556C46.044 7.46903 46.498 8.05026 46.498 8.7223C46.498 9.39434 46.044 9.97557 45.3901 10.139L40.4315 11.3741L39.1964 16.3327C39.0329 16.9866 38.4517 17.4407 37.7797 17.4407C37.1076 17.4407 36.5264 16.9866 36.3629 16.3327L35.1278 11.3741L30.1692 10.139C29.5154 9.97557 29.0613 9.39434 29.0613 8.7223C29.0613 8.05026 29.5154 7.46903 30.1692 7.30556L35.1278 6.07046L36.3629 1.11188C36.5264 0.457997 37.1076 0.00391464 37.7797 0.00391464Z" fill="#1A2835"/>
</svg>
