<svg width="166" height="166" viewBox="0 0 166 166" fill="none" xmlns="http://www.w3.org/2000/svg">
<circle cx="83" cy="83" r="83" fill="#1A2835"/>
<ellipse cx="84.2827" cy="86.8619" rx="26.3798" ry="23.8062" fill="#CFB383"/>
<path d="M83.6462 127.397C78.1279 127.397 72.9421 126.35 68.0886 124.257C63.2352 122.164 59.0133 119.326 55.4231 115.743C51.8329 112.16 48.9913 107.943 46.8983 103.093C44.8054 98.243 43.7575 93.0636 43.7549 87.5548C43.7549 82.5746 44.7189 77.694 46.647 72.913C48.5751 68.132 51.2678 63.865 54.725 60.1119C58.1823 56.3588 62.3376 53.3374 67.1911 51.0479C72.0445 48.7583 77.3633 47.6135 83.1476 47.6135C84.5438 47.6135 85.9732 47.6799 87.4359 47.8127C88.8986 47.9455 90.3945 48.1779 91.9237 48.51C91.3253 51.4981 91.5248 54.3202 92.5221 56.9763C93.5193 59.6324 95.0153 61.8397 97.0098 63.598C99.0044 65.3564 101.382 66.5689 104.142 67.2356C106.903 67.9022 109.744 67.7362 112.667 66.7375C110.939 70.6553 111.189 74.4071 113.417 77.9928C115.646 81.5786 118.953 83.4378 123.338 83.5707C123.405 84.3011 123.455 84.981 123.49 85.6105C123.524 86.24 123.54 86.9213 123.538 87.6544C123.538 93.0995 122.49 98.2284 120.394 103.041C118.299 107.854 115.457 112.071 111.869 115.691C108.282 119.311 104.06 122.167 99.2039 124.257C94.3478 126.347 89.1619 127.394 83.6462 127.397ZM77.6625 79.5865C79.3247 79.5865 80.7382 79.0061 81.903 77.8454C83.0678 76.6847 83.6489 75.273 83.6462 73.6102C83.6436 71.9475 83.0625 70.5371 81.903 69.379C80.7435 68.221 79.33 67.6393 77.6625 67.634C75.9951 67.6287 74.5829 68.2104 73.4261 69.379C72.2692 70.5477 71.6868 71.9581 71.6788 73.6102C71.6709 75.2623 72.2533 76.6741 73.4261 77.8454C74.5989 79.0167 76.011 79.5971 77.6625 79.5865ZM69.6843 99.5073C71.3464 99.5073 72.7599 98.927 73.9247 97.7662C75.0895 96.6055 75.6706 95.1938 75.668 93.5311C75.6653 91.8683 75.0842 90.458 73.9247 89.2999C72.7652 88.1418 71.3517 87.5601 69.6843 87.5548C68.0168 87.5495 66.6047 88.1312 65.4478 89.2999C64.291 90.4686 63.7085 91.879 63.7006 93.5311C63.6926 95.1832 64.275 96.5949 65.4478 97.7662C66.6206 98.9376 68.0328 99.518 69.6843 99.5073ZM95.6136 103.491C96.7439 103.491 97.692 103.109 98.4579 102.344C99.2238 101.579 99.6054 100.634 99.6028 99.5073C99.6001 98.3811 99.2172 97.4356 98.4539 96.6706C97.6907 95.9056 96.7439 95.5232 95.6136 95.5232C94.4834 95.5232 93.5366 95.9056 92.7734 96.6706C92.0101 97.4356 91.6272 98.3811 91.6245 99.5073C91.6218 100.634 92.0048 101.58 92.7734 102.348C93.542 103.116 94.4887 103.497 95.6136 103.491Z" fill="#9C704D"/>
</svg>
