<svg width="166" height="166" viewBox="0 0 166 166" fill="none" xmlns="http://www.w3.org/2000/svg">
<circle cx="83" cy="83" r="83" fill="#1A2835"/>
<ellipse cx="82.7034" cy="69.4801" rx="34.4029" ry="20.588" fill="#CFB383"/>
<path d="M82.3583 43.7542C87.5969 43.7542 92.7842 44.786 97.6241 46.7907C102.464 48.7954 106.862 51.7338 110.566 55.4381C114.27 59.1424 117.208 63.54 119.213 68.3798C121.218 73.2197 122.25 78.407 122.25 83.6456C122.25 85.7616 121.409 87.7909 119.913 89.2872C118.417 90.7834 116.387 91.6239 114.271 91.6239H50.4451C48.3291 91.6239 46.2998 90.7834 44.8036 89.2872C43.3074 87.7909 42.4668 85.7616 42.4668 83.6456C42.4668 73.0658 46.6696 62.9192 54.1507 55.4381C61.6319 47.957 71.7784 43.7542 82.3583 43.7542ZM82.3583 67.689C84.4743 67.689 86.5036 66.8485 87.9998 65.3523C89.496 63.856 90.3366 61.8267 90.3366 59.7107C90.3366 57.5948 89.496 55.5655 87.9998 54.0692C86.5036 52.573 84.4743 51.7324 82.3583 51.7324C80.2423 51.7324 78.213 52.573 76.7168 54.0692C75.2206 55.5655 74.38 57.5948 74.38 59.7107C74.38 61.8267 75.2206 63.856 76.7168 65.3523C78.213 66.8485 80.2423 67.689 82.3583 67.689ZM102.304 83.6456C104.42 83.6456 106.449 82.8051 107.946 81.3089C109.442 79.8126 110.282 77.7833 110.282 75.6673C110.282 73.5514 109.442 71.5221 107.946 70.0258C106.449 68.5296 104.42 67.689 102.304 67.689C100.188 67.689 98.1587 68.5296 96.6625 70.0258C95.1663 71.5221 94.3257 73.5514 94.3257 75.6673C94.3257 77.7833 95.1663 79.8126 96.6625 81.3089C98.1587 82.8051 100.188 83.6456 102.304 83.6456ZM62.4125 83.6456C64.5285 83.6456 66.5578 82.8051 68.0541 81.3089C69.5503 79.8126 70.3908 77.7833 70.3908 75.6673C70.3908 73.5514 69.5503 71.5221 68.0541 70.0258C66.5578 68.5296 64.5285 67.689 62.4125 67.689C60.2966 67.689 58.2673 68.5296 56.771 70.0258C55.2748 71.5221 54.4342 73.5514 54.4342 75.6673C54.4342 77.7833 55.2748 79.8126 56.771 81.3089C58.2673 82.8051 60.2966 83.6456 62.4125 83.6456ZM94.3257 95.6131L99.392 113.365L99.7111 115.559C99.7111 119.947 96.1209 123.537 91.7328 123.537H72.9838C70.8678 123.537 68.8385 122.697 67.3423 121.2C65.8461 119.704 65.0055 117.675 65.0055 115.559L65.3246 113.365L70.3908 95.6131H94.3257Z" fill="#9C704D"/>
</svg>
