<svg width="59" height="98" viewBox="0 0 59 98" fill="none" xmlns="http://www.w3.org/2000/svg">
<path d="M26.8106 19.0514C31.9884 19.0514 36.1943 14.7819 36.1943 9.52571C36.1943 4.26956 31.9884 0 26.8106 0C21.6328 0 17.4269 4.26956 17.4269 9.52571C17.4269 14.7819 21.6328 19.0514 26.8106 19.0514ZM12.2993 44.2095L16.0863 40.3652V52.1533C16.0863 56.9161 18.1306 61.4579 21.6998 64.5537L33.664 74.964C34.6527 75.8315 35.3062 77.0222 35.4905 78.332L37.6018 93.318C38.0207 96.2947 40.7353 98.37 43.6677 97.9447C46.6001 97.5195 48.6444 94.7638 48.2255 91.787L46.1142 76.8011C45.5612 72.8717 43.6174 69.2996 40.6515 66.714L34.8705 61.679V42.0832L35.5072 42.8827C38.5569 46.761 43.1818 49.0064 48.0747 49.0064H53.6379C56.6038 49.0064 59 46.5739 59 43.5631C59 40.5523 56.6038 38.1199 53.6379 38.1199H48.0747C46.4493 38.1199 44.9077 37.3714 43.8855 36.0786L40.8861 32.2684C37.0321 27.3694 31.184 24.5117 25.0009 24.5117C19.6052 24.5117 14.4274 26.689 10.6237 30.5673L4.70861 36.5039C1.69242 39.5657 0 43.7162 0 48.0538V54.4326C0 57.4435 2.39619 59.8759 5.36211 59.8759C8.32803 59.8759 10.7242 57.4435 10.7242 54.4326V48.0538C10.7242 46.608 11.294 45.2301 12.2993 44.2095ZM14.3772 74.7258C14.1258 75.6103 13.6566 76.4268 13.0199 77.0732L1.57512 88.6912C-0.519456 90.8175 -0.519456 94.2705 1.57512 96.3968C3.6697 98.5231 7.07129 98.5231 9.16586 96.3968L20.6106 84.7788C22.5376 82.8227 23.9452 80.3902 24.6992 77.7196L25.0679 76.4268L17.3598 69.7248C16.9409 69.3506 16.522 68.9764 16.1199 68.5681L14.3772 74.7258Z" fill="#1A2835"/>
</svg>
